<?xml version="1.0" encoding="UTF-8"?>
<svg xmlns="http://www.w3.org/2000/svg" xmlns:xlink="http://www.w3.org/1999/xlink" width="50px" height="50px" viewBox="0 0 50 50" version="1.1">
<g id="surface1">
<path style=" stroke:none;fill-rule:nonzero;fill:rgb(100%,100%,100%);fill-opacity:1;" d="M 7.339844 42.734375 C 15.761719 51.121094 28.910156 52.460938 38.851562 45.945312 C 40.203125 45.050781 41.082031 43.597656 41.242188 41.984375 C 41.40625 40.375 40.835938 38.773438 39.6875 37.628906 L 38.726562 36.679688 L 39.996094 35.40625 C 40.820312 34.582031 41.191406 33.410156 40.996094 32.261719 C 40.800781 31.113281 40.0625 30.128906 39.011719 29.625 L 31.839844 26.164062 C 31.285156 25.898438 30.621094 26.015625 30.195312 26.460938 L 27.953125 28.789062 L 27.882812 28.789062 C 24.875 27.585938 22.492188 25.195312 21.300781 22.179688 L 23.628906 19.847656 C 24.0625 19.425781 24.175781 18.773438 23.917969 18.226562 L 20.445312 11.042969 C 19.9375 9.992188 18.953125 9.253906 17.804688 9.058594 C 16.65625 8.863281 15.484375 9.238281 14.660156 10.0625 L 13.304688 11.414062 C 10.171875 14.550781 9.160156 19.222656 10.710938 23.375 C 13.484375 30.765625 19.316406 36.589844 26.710938 39.355469 C 29.949219 40.566406 33.5625 40.222656 36.515625 38.421875 C 36.574219 38.519531 36.640625 38.609375 36.71875 38.691406 L 37.671875 39.644531 C 38.210938 40.183594 38.480469 40.9375 38.40625 41.699219 C 38.328125 42.457031 37.914062 43.144531 37.277344 43.566406 C 28.132812 49.601562 15.949219 48.074219 8.582031 39.960938 C 1.210938 31.851562 0.851562 19.582031 7.734375 11.054688 C 14.617188 2.523438 26.6875 0.285156 36.171875 5.773438 C 45.652344 11.265625 49.722656 22.847656 45.753906 33.0625 C 45.457031 33.796875 45.8125 34.628906 46.542969 34.925781 C 47.277344 35.222656 48.113281 34.871094 48.410156 34.136719 C 52.230469 24.464844 49.640625 13.433594 41.917969 6.472656 C 31.847656 -2.691406 16.308594 -2.140625 6.914062 7.710938 C -2.476562 17.5625 -2.289062 33.113281 7.339844 42.734375 Z M 27.707031 36.691406 C 21.082031 34.210938 15.855469 28.984375 13.378906 22.363281 C 12.222656 19.261719 12.980469 15.773438 15.316406 13.433594 L 16.671875 12.078125 C 16.808594 11.933594 16.996094 11.851562 17.195312 11.855469 L 17.324219 11.855469 C 17.574219 11.886719 17.789062 12.042969 17.894531 12.269531 L 20.917969 18.535156 L 19.210938 20.242188 C 18.46875 20.992188 18.246094 22.113281 18.640625 23.089844 C 20.101562 26.878906 23.066406 29.894531 26.835938 31.410156 L 27 31.472656 C 28.019531 31.878906 29.179688 31.628906 29.9375 30.835938 L 31.539062 29.171875 L 37.804688 32.183594 C 38.023438 32.292969 38.175781 32.496094 38.214844 32.738281 C 38.257812 32.976562 38.179688 33.21875 38.007812 33.390625 L 36.652344 34.746094 C 34.308594 37.09375 30.808594 37.851562 27.703125 36.691406 Z M 27.707031 36.691406 "/>
</g>
</svg>
