<?xml version="1.0" encoding="UTF-8"?>
<svg xmlns="http://www.w3.org/2000/svg" xmlns:xlink="http://www.w3.org/1999/xlink" width="50px" height="50px" viewBox="0 0 50 50" version="1.1">
<g id="surface1">
<path style=" stroke:none;fill-rule:nonzero;fill:rgb(100%,100%,100%);fill-opacity:1;" d="M 30.957031 42.226562 C 35.148438 43.628906 39.1875 42.460938 42.9375 40.953125 L 43.046875 40.910156 C 43.046875 40.910156 47.394531 43.308594 48.558594 44.042969 C 48.605469 44.078125 48.671875 44.074219 48.71875 44.039062 C 48.765625 44.003906 48.785156 43.941406 48.765625 43.882812 C 48.378906 42.492188 47.078125 37.296875 47.078125 37.296875 L 47.144531 37.210938 C 48.4375 35.511719 49.328125 33.542969 49.757812 31.449219 C 51.371094 23.808594 46.65625 16.253906 39.082031 14.351562 C 31.507812 12.453125 23.78125 16.878906 21.597656 24.378906 C 19.410156 31.875 23.546875 39.761719 30.957031 42.226562 Z M 30.957031 42.226562 "/>
<path style=" stroke:none;fill-rule:nonzero;fill:rgb(100%,100%,100%);fill-opacity:1;" d="M 37.453125 20.488281 C 36.976562 18.171875 36.066406 15.960938 34.773438 13.980469 C 28.171875 14.28125 22.621094 19.027344 21.296875 25.5 C 20.105469 31.546875 22.828125 37.695312 28.113281 40.875 C 35.324219 36.828125 39.097656 28.59375 37.453125 20.488281 Z M 37.453125 20.488281 "/>
<path style=" stroke:none;fill-rule:nonzero;fill:rgb(100%,100%,100%);fill-opacity:1;" d="M 18.355469 24.886719 C 19.8125 17.835938 25.453125 12.40625 32.554688 11.222656 C 26.707031 5.144531 17.535156 3.671875 10.078125 7.617188 C 2.621094 11.558594 -1.328125 19.964844 0.40625 28.222656 C 0.972656 31 2.171875 33.609375 3.910156 35.847656 C 3.980469 35.9375 2.238281 42.617188 1.710938 44.4375 C 1.6875 44.507812 1.710938 44.589844 1.773438 44.636719 C 1.832031 44.6875 1.917969 44.6875 1.984375 44.644531 C 3.503906 43.679688 9.175781 40.570312 9.175781 40.570312 L 9.304688 40.625 C 14.164062 42.578125 19.402344 44.089844 24.832031 42.328125 C 19.496094 38.246094 16.976562 31.460938 18.355469 24.886719 Z M 18.355469 24.886719 "/>
</g>
</svg>
