<svg id="live-chat" xmlns="http://www.w3.org/2000/svg" width="36.21" height="35.98" viewBox="0 0 36.21 35.98">
  <path id="Path_5" data-name="Path 5" d="M563.421,515.8a1.614,1.614,0,0,0-1.615,1.615,10.181,10.181,0,0,1-4.727,8.465l-.884.593.436,2.277-3.351-1.167-.448.1a13.125,13.125,0,0,1-2.818.3,1.615,1.615,0,1,0,0,3.229,16.433,16.433,0,0,0,3.056-.287l7.783,2.709-1.094-5.72a14.223,14.223,0,0,0,3.585-4.134,12.969,12.969,0,0,0,1.691-6.374A1.613,1.613,0,0,0,563.421,515.8Z" transform="translate(-528.826 -497.655)" fill="#fff"/>
  <path id="Path_6" data-name="Path 6" d="M93.57,86.339a13.348,13.348,0,0,0,0-11.3,14.389,14.389,0,0,0-3.387-4.574,16.672,16.672,0,0,0-22.041,0,14.329,14.329,0,0,0-3.387,4.574A13.311,13.311,0,0,0,63.5,80.687a13.487,13.487,0,0,0,1.764,6.641,14.741,14.741,0,0,0,3.774,4.336l-1.13,5.91,8.049-2.8a17.008,17.008,0,0,0,3.205.3,16.3,16.3,0,0,0,11.02-4.162A14.389,14.389,0,0,0,93.57,86.339Zm-14.407,5.5a14.04,14.04,0,0,1-2.971-.319l-.448-.1-3.617,1.259.472-2.466-.884-.6a10.739,10.739,0,0,1-4.985-8.933c0-6.152,5.579-11.158,12.433-11.158S91.6,74.531,91.6,80.683,86.017,91.841,79.163,91.841Z" transform="translate(-63.5 -66.3)" fill="#fff"/>
  <path id="Path_7" data-name="Path 7" d="M221.343,376.133a1.663,1.663,0,1,0,0-2.352A1.663,1.663,0,0,0,221.343,376.133Z" transform="translate(-214.504 -360.901)" fill="#fff"/>
  <path id="Path_8" data-name="Path 8" d="M404.445,376.143a1.663,1.663,0,1,0,0-2.352A1.663,1.663,0,0,0,404.445,376.143Z" transform="translate(-390.215 -360.911)" fill="#fff"/>
  <path id="Path_9" data-name="Path 9" d="M587.548,376.154a1.663,1.663,0,1,0,0-2.352A1.663,1.663,0,0,0,587.548,376.154Z" transform="translate(-565.926 -360.921)" fill="#fff"/>
</svg>
