<?xml version="1.0" encoding="utf-8"?>
<!-- Generator: Adobe Illustrator 26.5.0, SVG Export Plug-In . SVG Version: 6.00 Build 0)  -->
<svg version="1.1" id="Layer_1" xmlns="http://www.w3.org/2000/svg" xmlns:xlink="http://www.w3.org/1999/xlink" x="0px" y="0px"
	 viewBox="0 0 286.4 52.5" style="enable-background:new 0 0 286.4 52.5;" xml:space="preserve">
<style type="text/css">
	.st0{fill:#DFE0E0;}
	.st1{fill:#FFFFFF;}
	.st2{fill:#EFF0F0;}
</style>
<g>
	<path class="st0" d="M88.8,0.9l3.4,16.9L96,0.9h4.5l-4.9,19.7h-6.2L85.9,4.4l-3.5,16.3h-6.2L71.4,0.9H76l3.7,16.9l3.5-16.9
		L88.8,0.9z"/>
	<path class="st0" d="M115.1,15.5c-0.2,0.8-0.5,1.6-1,2.3c-0.4,0.7-1,1.3-1.6,1.8c-0.6,0.5-1.4,0.9-2.1,1.1
		c-0.8,0.3-1.7,0.4-2.6,0.4c-0.7,0-1.5-0.1-2.2-0.3c-0.7-0.2-1.3-0.4-1.9-0.8c-0.6-0.3-1.1-0.7-1.5-1.2c-0.5-0.5-0.8-1-1.1-1.6
		c-0.3-0.6-0.6-1.3-0.7-2c-0.2-0.7-0.3-1.5-0.3-2.3c0-0.8,0.1-1.5,0.2-2.3c0.2-0.7,0.4-1.3,0.7-1.9c0.3-0.6,0.7-1.1,1.1-1.6
		c0.4-0.5,1-0.9,1.5-1.2c0.6-0.3,1.2-0.6,1.9-0.8c0.7-0.2,1.4-0.3,2.1-0.3c1,0,2.1,0.2,3.1,0.6c0.9,0.4,1.7,0.9,2.4,1.6
		c0.7,0.7,1.2,1.6,1.5,2.5c0.4,1.1,0.5,2.2,0.5,3.3c0,0.2,0,0.4,0,0.6c0,0.2,0,0.4,0,0.6h-11c0.1,0.5,0.2,1,0.4,1.5
		c0.2,0.4,0.5,0.8,0.8,1.1c0.3,0.3,0.7,0.6,1.1,0.7c0.5,0.2,1,0.3,1.5,0.2c0.7,0,1.4-0.2,2-0.6c0.6-0.4,1-1,1.3-1.7L115.1,15.5z
		 M111.3,11.6c-0.1-0.9-0.5-1.8-1.1-2.5c-0.6-0.6-1.5-0.9-2.3-0.8c-0.5,0-0.9,0.1-1.3,0.2c-0.4,0.1-0.8,0.4-1.1,0.6
		c-0.3,0.3-0.6,0.6-0.8,1c-0.2,0.4-0.4,0.9-0.4,1.4L111.3,11.6z"/>
	<path class="st0" d="M120.8,10.1c0.1-0.7,0.4-1.5,0.7-2.1c0.3-0.6,0.7-1.1,1.1-1.6c0.4-0.4,0.9-0.8,1.5-1c0.6-0.2,1.2-0.3,1.8-0.3
		c0.6,0,1.2,0.1,1.7,0.3c0.5,0.2,1,0.4,1.5,0.8c0.5,0.3,0.9,0.7,1.2,1.2c0.4,0.5,0.7,1,0.9,1.6c0.3,0.6,0.5,1.3,0.6,1.9
		c0.3,1.5,0.3,3,0,4.5c-0.1,0.7-0.3,1.3-0.6,1.9c-0.2,0.6-0.6,1.1-0.9,1.6c-0.3,0.5-0.8,0.9-1.2,1.2c-0.5,0.3-1,0.6-1.5,0.8
		c-0.6,0.2-1.1,0.3-1.7,0.3c-0.6,0-1.2-0.1-1.8-0.3c-0.6-0.2-1.1-0.6-1.5-1c-0.5-0.5-0.8-1-1.1-1.6c-0.3-0.7-0.6-1.4-0.7-2.1v4.6
		h-4.1V0.3h4.1V10.1z M120.8,13.1c0,0.6,0.1,1.3,0.2,1.9c0.1,0.5,0.4,1,0.7,1.4c0.3,0.4,0.7,0.7,1.1,0.9c0.5,0.2,1,0.3,1.5,0.3
		c1,0.1,2-0.4,2.6-1.1c0.7-1,1-2.2,0.9-3.3c0.1-1.2-0.2-2.4-0.9-3.3c-0.6-0.8-1.6-1.2-2.6-1.1c-0.5,0-1,0.1-1.5,0.3
		c-0.4,0.2-0.8,0.5-1.1,0.9c-0.3,0.4-0.6,0.9-0.7,1.4C120.8,11.8,120.8,12.4,120.8,13.1"/>
	<path class="st1" d="M252.6,44.4h-6.5v-7.2h-4.7v7.2h-6.5V24.7h6.5v7.2h4.7v-7.2h6.5V44.4z"/>
	<path class="st1" d="M262.9,29.2h6.1v15.2h-6.1v-4.8c-0.1,1.4-0.7,2.8-1.6,4c-0.9,0.9-2.1,1.4-3.3,1.3c-0.7,0-1.3-0.1-1.9-0.4
		c-0.5-0.2-1-0.6-1.3-1.1c-0.4-0.6-0.7-1.3-0.8-2c-0.2-0.9-0.3-1.9-0.3-2.8v-9.3h6.1v7.6c0,0.7,0.1,1.5,0.4,2.1
		c0.4,0.6,1.2,0.9,1.8,0.5c0.2-0.1,0.4-0.3,0.5-0.5c0.3-0.7,0.4-1.4,0.4-2.1V29.2z"/>
	<path class="st1" d="M276.3,33.7c0.1-1.3,0.6-2.6,1.5-3.7c0.7-0.8,1.8-1.3,2.9-1.2c0.8,0,1.6,0.2,2.3,0.6c0.7,0.4,1.3,1,1.8,1.6
		c0.5,0.8,0.9,1.6,1.2,2.5c0.5,2.1,0.5,4.4,0,6.5c-0.2,0.9-0.6,1.8-1.2,2.5c-0.5,0.7-1.1,1.2-1.8,1.6c-0.7,0.4-1.5,0.6-2.3,0.6
		c-1.1,0-2.2-0.4-2.9-1.2c-0.8-1.1-1.3-2.4-1.5-3.7v4.5h-6.1V24h6.1L276.3,33.7z M276.3,36.8c-0.1,0.7,0.1,1.5,0.5,2.1
		c0.7,0.8,1.8,0.9,2.6,0.3c0.1-0.1,0.2-0.2,0.3-0.3c0.6-1.3,0.6-2.9,0-4.2c-0.7-0.8-1.8-0.9-2.6-0.3c-0.1,0.1-0.2,0.2-0.3,0.3
		C276.4,35.3,276.3,36.1,276.3,36.8"/>
	<path class="st0" d="M0,15.9v14.2l21.2,21.2l9.5-9.8l9.6,9.8L61.5,30V15.9L40.4,37l-2.6-2.7l-0.1,0.1l-6.9,6.9l-6.9-6.9l-0.1-0.1
		L21.1,37L0,15.9z"/>
	<path class="st2" d="M30.7,27.2L13.6,10h34.3L30.7,27.2z M61.5,0H0v10.6l23.8,23.8l0.1-0.1l6.9-7.1l6.9,7.1l0.1,0.1l23.8-23.8V0"/>
	<path class="st1" d="M30.7,27.2l-6.9,7.1l-0.1,0.1l0.1,0.1l6.9,6.9l6.9-6.9l0.1-0.1l-0.1-0.1L30.7,27.2z"/>
	<g>
		<path class="st0" d="M84,25.9c1.6,0.8,2.8,2,3.7,3.5c0.9,1.5,1.3,3.3,1.3,5.3c0,2-0.4,3.8-1.3,5.3c-0.9,1.5-2.1,2.7-3.7,3.5
			c-1.6,0.8-3.5,1.2-5.6,1.2h-7V24.7h7C80.6,24.7,82.4,25.1,84,25.9z M83.2,39.7c1.2-1.2,1.7-2.8,1.7-4.9s-0.6-3.7-1.7-4.9
			s-2.8-1.8-4.9-1.8h-2.9v13.3h2.9C80.4,41.4,82,40.8,83.2,39.7z"/>
		<path class="st0" d="M106.8,38H95.2c0.1,1.2,0.5,2.1,1.2,2.7c0.7,0.7,1.6,1,2.6,1c1.5,0,2.6-0.6,3.2-1.9h4.4
			c-0.5,1.5-1.3,2.8-2.7,3.8c-1.3,1-2.9,1.5-4.8,1.5c-1.5,0-2.9-0.3-4.1-1c-1.2-0.7-2.2-1.7-2.9-2.9c-0.7-1.3-1-2.7-1-4.3
			c0-1.7,0.3-3.1,1-4.4s1.6-2.2,2.8-2.9c1.2-0.7,2.6-1,4.2-1c1.5,0,2.9,0.3,4.1,1c1.2,0.7,2.1,1.6,2.8,2.8s1,2.6,1,4.1
			C107,37.1,106.9,37.6,106.8,38z M102.8,35.3c0-1-0.4-1.9-1.1-2.5c-0.7-0.6-1.6-0.9-2.7-0.9c-1,0-1.8,0.3-2.5,0.9
			c-0.7,0.6-1.1,1.4-1.3,2.5H102.8z"/>
		<path class="st0" d="M116.6,41.1l4-12.3h4.3l-5.9,16h-4.9l-5.9-16h4.3L116.6,41.1z"/>
		<path class="st0" d="M142,38h-11.7c0.1,1.2,0.5,2.1,1.2,2.7c0.7,0.7,1.6,1,2.6,1c1.5,0,2.6-0.6,3.2-1.9h4.4
			c-0.5,1.5-1.3,2.8-2.7,3.8c-1.3,1-2.9,1.5-4.8,1.5c-1.5,0-2.9-0.3-4.1-1c-1.2-0.7-2.2-1.7-2.9-2.9c-0.7-1.3-1-2.7-1-4.3
			c0-1.7,0.3-3.1,1-4.4s1.6-2.2,2.8-2.9c1.2-0.7,2.6-1,4.2-1c1.5,0,2.9,0.3,4.1,1c1.2,0.7,2.1,1.6,2.8,2.8s1,2.6,1,4.1
			C142.1,37.1,142,37.6,142,38z M137.9,35.3c0-1-0.4-1.9-1.1-2.5c-0.7-0.6-1.6-0.9-2.7-0.9c-1,0-1.8,0.3-2.5,0.9
			c-0.7,0.6-1.1,1.4-1.3,2.5H137.9z"/>
		<path class="st0" d="M149.1,23.5v21.4h-4V23.5H149.1z"/>
		<path class="st0" d="M156,44.1c-1.2-0.7-2.2-1.7-2.9-2.9s-1.1-2.7-1.1-4.3c0-1.6,0.4-3.1,1.1-4.3c0.7-1.3,1.7-2.2,3-2.9
			c1.3-0.7,2.6-1,4.2-1c1.5,0,2.9,0.3,4.2,1c1.3,0.7,2.2,1.7,3,2.9c0.7,1.3,1.1,2.7,1.1,4.3c0,1.6-0.4,3.1-1.1,4.3
			c-0.7,1.3-1.7,2.2-3,2.9c-1.3,0.7-2.7,1-4.2,1C158.6,45.1,157.2,44.7,156,44.1z M162.2,41c0.6-0.4,1.2-0.9,1.5-1.6
			c0.4-0.7,0.6-1.6,0.6-2.6c0-1.5-0.4-2.7-1.2-3.5c-0.8-0.8-1.8-1.2-2.9-1.2s-2.1,0.4-2.9,1.2s-1.2,2-1.2,3.5c0,1.5,0.4,2.7,1.1,3.5
			c0.8,0.8,1.7,1.2,2.9,1.2C160.9,41.6,161.6,41.4,162.2,41z"/>
		<path class="st0" d="M177.6,29.3c0.9-0.5,2-0.7,3.1-0.7c1.4,0,2.6,0.3,3.7,1s2,1.6,2.6,2.9c0.6,1.2,1,2.7,1,4.3
			c0,1.6-0.3,3.1-1,4.3c-0.6,1.3-1.5,2.2-2.6,2.9c-1.1,0.7-2.3,1-3.7,1c-1.2,0-2.2-0.2-3.1-0.7c-0.9-0.5-1.6-1.1-2.2-1.8v9.9h-4
			V28.8h4v2.3C176,30.4,176.7,29.8,177.6,29.3z M183.4,34.3c-0.4-0.7-0.9-1.2-1.6-1.6c-0.6-0.4-1.3-0.5-2.1-0.5
			c-0.7,0-1.4,0.2-2.1,0.6c-0.6,0.4-1.2,0.9-1.6,1.6c-0.4,0.7-0.6,1.5-0.6,2.5c0,1,0.2,1.8,0.6,2.5c0.4,0.7,0.9,1.3,1.6,1.6
			c0.6,0.4,1.3,0.6,2.1,0.6c0.8,0,1.4-0.2,2.1-0.6c0.6-0.4,1.2-0.9,1.6-1.6c0.4-0.7,0.6-1.6,0.6-2.5C184,35.8,183.8,35,183.4,34.3z"
			/>
		<path class="st0" d="M205.8,38h-11.7c0.1,1.2,0.5,2.1,1.2,2.7c0.7,0.7,1.6,1,2.6,1c1.5,0,2.6-0.6,3.2-1.9h4.4
			c-0.5,1.5-1.3,2.8-2.7,3.8c-1.3,1-2.9,1.5-4.8,1.5c-1.5,0-2.9-0.3-4.1-1c-1.2-0.7-2.2-1.7-2.9-2.9c-0.7-1.3-1-2.7-1-4.3
			c0-1.7,0.3-3.1,1-4.4s1.6-2.2,2.8-2.9c1.2-0.7,2.6-1,4.2-1c1.5,0,2.9,0.3,4.1,1c1.2,0.7,2.1,1.6,2.8,2.8s1,2.6,1,4.1
			C205.9,37.1,205.9,37.6,205.8,38z M201.7,35.3c0-1-0.4-1.9-1.1-2.5c-0.7-0.6-1.6-0.9-2.7-0.9c-1,0-1.8,0.3-2.5,0.9
			c-0.7,0.6-1.1,1.4-1.3,2.5H201.7z"/>
		<path class="st0" d="M214.9,29.3c0.8-0.5,1.8-0.7,2.9-0.7v4.2h-1.1c-1.3,0-2.2,0.3-2.9,0.9c-0.6,0.6-1,1.6-1,3.1v8h-4v-16h4v2.5
			C213.4,30.5,214.1,29.8,214.9,29.3z"/>
		<path class="st0" d="M223.1,44.4c-1-0.5-1.9-1.1-2.5-1.9c-0.6-0.8-0.9-1.7-1-2.7h4.1c0.1,0.6,0.4,1.1,0.9,1.5
			c0.5,0.4,1.2,0.6,2,0.6c0.8,0,1.4-0.2,1.8-0.5c0.4-0.3,0.6-0.7,0.6-1.2c0-0.5-0.3-0.9-0.8-1.2c-0.5-0.3-1.4-0.5-2.5-0.9
			c-1.2-0.3-2.2-0.6-2.9-0.9c-0.8-0.3-1.4-0.8-2-1.4c-0.5-0.6-0.8-1.5-0.8-2.6c0-0.9,0.3-1.7,0.8-2.4c0.5-0.7,1.2-1.3,2.2-1.7
			c1-0.4,2.1-0.6,3.4-0.6c1.9,0,3.4,0.5,4.6,1.4c1.1,1,1.8,2.2,1.9,3.9h-3.9c-0.1-0.6-0.3-1.1-0.8-1.5c-0.5-0.4-1.1-0.6-1.9-0.6
			c-0.7,0-1.3,0.1-1.7,0.4s-0.6,0.6-0.6,1.1c0,0.5,0.3,0.9,0.8,1.2c0.5,0.3,1.4,0.6,2.5,0.9c1.2,0.3,2.1,0.6,2.9,0.9
			c0.8,0.3,1.4,0.8,1.9,1.4c0.5,0.6,0.8,1.5,0.9,2.6c0,0.9-0.3,1.8-0.8,2.5c-0.5,0.7-1.2,1.3-2.2,1.7c-1,0.4-2.1,0.6-3.3,0.6
			C225.3,45.1,224.1,44.9,223.1,44.4z"/>
	</g>
</g>
</svg>
